# xmcd
#
# Track frame offsets: 
#        150
#        13016
#        26920
#        38306
#        52660
#        64979
#        78356
#        93274
#        104274
#        116683
#        126623
#        137954
#        150637
#        161149
#        172700
#        183010
#        195381
#        207103
#        218259
#        232918
#
# Disc length: 3276 seconds
#
# Revision: 0
# Processed by: cddbd v1.5.2PL0 Copyright (c) Steve Scherf et al.
# Submitted via: ExactAudioCopyFreeDBPlugin 1.0
#
DISCID=f80cca14
DTITLE=Elmore James - The Essential Recordigs
DYEAR=2017
DGENRE=Blues
TTITLE0=The Sky is Crying
TTITLE1=It hurts me too
TTITLE2=Shake your Moneymaker
TTITLE3=Dust my Blues
TTITLE4=Blues before Sunrise
TTITLE5=Goodbye, Baby
TTITLE6=Wild about you
TTITLE7=Coming Home
TTITLE8=Cry for Me, Baby
TTITLE9=Bobby's Rock
TTITLE10=Rollin' and Tumblin'
TTITLE11=I'm worried
TTITLE12=Done sombody wrong
TTITLE13=Fine little Mama
TTITLE14=I can't hold out
TTITLE15=The Sun is shining
TTITLE16=Knocking at your door
TTITLE17=Look on younder wall
TTITLE18=Stranger Blues
TTITLE19=Anna Lee
EXTD=
EXTT0=
EXTT1=
EXTT2=
EXTT3=
EXTT4=
EXTT5=
EXTT6=
EXTT7=
EXTT8=
EXTT9=
EXTT10=
EXTT11=
EXTT12=
EXTT13=
EXTT14=
EXTT15=
EXTT16=
EXTT17=
EXTT18=
EXTT19=
PLAYORDER=
